<svg width="664" height="1117" viewBox="0 0 664 1117" fill="none" xmlns="http://www.w3.org/2000/svg">
<g clip-path="url(#clip0_346_1696)">
<rect width="664" height="1117" fill="#30251F"/>
<path fill-rule="evenodd" clip-rule="evenodd" d="M768.011 635.114V402.505C768.011 272.439 662.572 167 532.505 167C402.439 167 297 272.439 297 402.505V635.113C297 765.18 402.439 870.619 532.505 870.619C662.572 870.619 768.011 765.18 768.011 635.114ZM532.505 161C399.126 161 291 269.126 291 402.505V635.113C291 768.493 399.126 876.619 532.505 876.619C665.885 876.619 774.011 768.493 774.011 635.114V402.505C774.011 269.126 665.885 161 532.505 161ZM506.31 279.211H555.506L699.259 576.644H647.508L605.849 488.741C599.365 541.109 552.696 581.728 496.088 581.728C461.36 581.728 430.374 566.441 410.11 542.534L393.863 576.644H377.252L400.346 528.981C390.94 513.462 385.557 495.445 385.557 476.228C385.557 424.443 424.647 381.373 476.199 372.432L513.977 294.464L506.31 279.211ZM471.79 381.53C431.73 392.518 402.169 430.751 402.169 476.228C402.169 488.843 404.443 500.901 408.586 511.974L471.79 381.53ZM416.697 528.706L488.172 378.648C490.573 378.454 493 378.355 495.449 378.355C546.966 378.355 588.729 422.174 588.729 476.228C588.729 530.282 546.966 574.102 495.449 574.102C462.334 574.102 433.25 555.996 416.697 528.706ZM491.909 370.802L521.005 309.717L558.715 389.286C540.913 377.581 519.339 370.728 496.088 370.728C494.688 370.728 493.295 370.753 491.909 370.802ZM683.724 676.551C682.454 675.858 681.157 675.747 679.834 676.216C678.521 676.673 677.343 677.643 676.301 679.127C675.565 680.175 675.076 681.196 674.837 682.19C674.606 683.171 674.622 684.058 674.887 684.851C675.151 685.643 675.636 686.285 676.342 686.775C677.394 687.507 678.525 687.636 679.735 687.164C680.932 686.683 682.191 685.855 683.512 684.681L686.037 682.554C688.268 680.546 690.555 679.234 692.898 678.617C695.237 677.978 697.523 678.435 699.755 679.986C701.385 681.119 702.53 682.533 703.191 684.229C703.852 685.925 703.972 687.807 703.551 689.874C703.126 691.919 702.146 694.035 700.611 696.221C699.102 698.369 697.452 700.011 695.663 701.145C693.869 702.258 692.01 702.812 690.085 702.806C688.161 702.801 686.272 702.201 684.418 701.008L687.866 696.098C689.346 696.955 690.83 697.111 692.32 696.567C693.809 696.023 695.14 694.931 696.311 693.29C697.074 692.203 697.581 691.128 697.831 690.066C698.078 688.981 698.065 687.992 697.795 687.1C697.524 686.208 696.997 685.49 696.214 684.946C695.179 684.245 694.087 684.115 692.939 684.553C691.778 684.983 690.397 685.888 688.797 687.269L685.78 689.853C681.017 693.888 676.782 694.617 673.074 692.039C671.457 690.916 670.343 689.485 669.731 687.747C669.106 685.999 668.997 684.116 669.404 682.096C669.797 680.068 670.677 678.081 672.042 676.138C673.398 674.207 674.941 672.73 676.672 671.707C678.412 670.671 680.194 670.159 682.018 670.171C683.83 670.174 685.521 670.702 687.092 671.756L683.724 676.551ZM393.716 676.223L357.701 675.776L359.807 681.942L368.665 681.918L372.793 694.006L365.761 699.375L367.866 705.541L396.14 683.321L393.716 676.223ZM388.401 682.126L376.926 690.877L373.858 681.895L388.31 681.86L388.401 682.126ZM400.046 745.503L403.599 749.619L429.407 727.58L425.456 723.003L407.811 738.07L407.597 737.822L414.798 710.653L411.184 706.466L385.376 728.504L389.358 733.118L407.003 718.05L407.186 718.263L400.046 745.503ZM455.309 763.928C455.921 762.161 455.976 760.481 455.474 758.889C454.981 757.284 453.929 755.898 452.319 754.73C450.87 753.679 449.305 753.111 447.623 753.025C445.962 752.935 444.296 753.371 442.624 754.332C440.952 755.293 439.397 756.755 437.959 758.717C436.503 760.704 435.566 762.642 435.149 764.531C434.74 766.408 434.835 768.13 435.431 769.697C436.028 771.264 437.082 772.595 438.593 773.691C439.931 774.661 441.287 775.257 442.661 775.479C444.056 775.697 445.37 775.535 446.602 774.992C447.856 774.446 448.956 773.553 449.904 772.312L443.662 767.785L446.456 763.972L457.38 771.894L455.02 775.115C453.364 777.373 451.428 778.993 449.211 779.974C447.006 780.964 444.708 781.291 442.317 780.956C439.935 780.608 437.636 779.63 435.419 778.022C432.954 776.235 431.187 774.103 430.119 771.627C429.059 769.139 428.769 766.481 429.248 763.654C429.748 760.823 431.021 758.013 433.065 755.224C435.118 752.423 437.43 750.367 440.003 749.058C442.596 747.745 445.229 747.207 447.901 747.443C450.585 747.689 453.104 748.665 455.457 750.372C457.401 751.782 458.909 753.452 459.98 755.381C461.063 757.32 461.627 759.345 461.673 761.457C461.727 763.556 461.253 765.575 460.25 767.512L455.309 763.928ZM507.344 777.174L488.357 768.932L475.59 798.075L494.657 806.351L496.597 801.924L482.77 795.922L486.262 787.952L499 793.481L500.922 789.094L488.184 783.564L491.676 775.595L505.422 781.562L507.344 777.174ZM531.647 779.368H537.741V808.15H552.741V813.306H531.647V779.368ZM584.744 808.776L587.903 807.729L577.133 775.546L573.974 776.592L584.744 808.776ZM641.2 777.708L638.521 779.435L606.658 766.683L606.422 766.835L621.699 790.281L618.902 792.085L600.374 763.651L603.093 761.898L634.982 774.69L635.218 774.538L619.915 751.052L622.673 749.274L641.2 777.708ZM673.953 724.746L656.669 710.858L652.798 715.625L669.68 729.19C670.788 730.081 671.578 731.116 672.048 732.296C672.519 733.476 672.64 734.716 672.41 736.015C672.169 737.304 671.565 738.543 670.6 739.731C669.635 740.92 668.539 741.773 667.313 742.292C666.085 742.788 664.836 742.937 663.568 742.74C662.309 742.53 661.125 741.98 660.017 741.089L643.136 727.524L639.294 732.255L656.578 746.143C658.453 747.65 660.475 748.543 662.644 748.822C664.822 749.089 666.968 748.739 669.082 747.772C671.196 746.805 673.115 745.26 674.839 743.137C676.552 741.027 677.662 738.842 678.169 736.583C678.685 734.311 678.577 732.151 677.847 730.101C677.126 728.038 675.828 726.254 673.953 724.746Z" fill="#FBFBFA" fill-opacity="0.1"/>
</g>
<defs>
<clipPath id="clip0_346_1696">
<rect width="664" height="1117" fill="white"/>
</clipPath>
</defs>
</svg>
