<svg width="344" height="48" viewBox="0 0 344 48" fill="none" xmlns="http://www.w3.org/2000/svg">
<path fill-rule="evenodd" clip-rule="evenodd" d="M19.9257 4.95996H26.1183L44.2135 42.4H37.6992L32.4553 31.335C31.6392 37.9269 25.7646 43.04 18.6389 43.04C14.2675 43.04 10.367 41.1157 7.81633 38.1063L5.77118 42.4H3.68018L6.58721 36.4003C5.40328 34.4469 4.72567 32.179 4.72567 29.76C4.72567 23.2414 9.64616 17.8198 16.1354 16.6944L20.8908 6.87996L19.9257 4.95996ZM15.5804 17.8397C10.5377 19.2228 6.81667 24.0354 6.81667 29.76C6.81667 31.3479 7.103 32.8657 7.62444 34.2596L15.5804 17.8397ZM8.6454 36.3657L17.6424 17.4769C17.9447 17.4524 18.2502 17.44 18.5585 17.44C25.0433 17.44 30.3003 22.9558 30.3003 29.76C30.3003 36.5641 25.0433 42.08 18.5585 42.08C14.3901 42.08 10.7291 39.8009 8.6454 36.3657ZM18.1129 16.4893L21.7754 8.79996L26.5222 18.8159C24.2814 17.3425 21.5657 16.48 18.6389 16.48C18.4628 16.48 18.2874 16.4831 18.1129 16.4893Z" fill="#FBFBFA"/>
<path d="M65.2195 38L75.1805 9.71875H81.4305L91.4305 38H86.0008L83.6375 31.0078H72.993L70.6492 38H65.2195ZM82.2703 26.9062L78.4227 15.5H78.1883L74.3602 26.9062H82.2703ZM125.232 38H120.701L107.302 18.6641H107.068V38H101.99V9.71875H106.599L119.92 29.0547H120.193V9.71875H125.232V38ZM156.612 18.7422C156.143 17.2188 155.336 16.0339 154.19 15.1875C153.044 14.3281 151.625 13.8984 149.932 13.8984C148.409 13.8984 147.048 14.2891 145.85 15.0703C144.665 15.8385 143.741 16.9714 143.077 18.4688C142.412 19.9661 142.08 21.75 142.08 23.8203C142.08 25.9167 142.412 27.7201 143.077 29.2305C143.741 30.7279 144.672 31.8672 145.87 32.6484C147.067 33.4297 148.461 33.8203 150.049 33.8203C151.455 33.8203 152.686 33.5534 153.741 33.0195C154.808 32.4727 155.629 31.7044 156.202 30.7148C156.787 29.7122 157.093 28.5469 157.12 27.2188H150.557V23.1953H162.041V26.5938C162.041 28.9766 161.527 31.0599 160.498 32.8438C159.483 34.6276 158.07 36.0013 156.26 36.9648C154.45 37.9154 152.38 38.3906 150.049 38.3906C147.458 38.3906 145.173 37.8047 143.194 36.6328C141.215 35.4479 139.678 33.7617 138.584 31.5742C137.504 29.3737 136.963 26.8021 136.963 23.8594C136.963 20.9036 137.517 18.332 138.623 16.1445C139.743 13.944 141.28 12.2578 143.233 11.0859C145.199 9.91406 147.419 9.32812 149.893 9.32812C151.937 9.32812 153.812 9.72526 155.518 10.5195C157.237 11.3138 158.643 12.4271 159.737 13.8594C160.83 15.2786 161.521 16.9062 161.807 18.7422H156.612ZM173.851 9.71875H192.249V13.9766H178.929V21.7109H191.273V25.9688H178.929V33.7031H192.327V38H173.851V9.71875ZM204.332 9.71875H209.41V33.7031H221.91V38H204.332V9.71875ZM236.688 38H233.915V9.71875H236.688V38ZM272.716 38H270.06L253.615 14.6797H253.38V38H250.607V9.71875H253.302L269.748 33.0781H269.982V9.71875H272.716V38ZM308.862 9.71875V28.1953C308.862 30.2005 308.38 31.9779 307.416 33.5273C306.466 35.0768 305.118 36.2812 303.373 37.1406C301.642 38 299.643 38.4297 297.377 38.4297C295.099 38.4297 293.093 38 291.362 37.1406C289.63 36.2812 288.282 35.0768 287.319 33.5273C286.368 31.9779 285.893 30.2005 285.893 28.1953V9.71875H290.971V27.7656C290.971 28.9505 291.232 30.0052 291.752 30.9297C292.286 31.8542 293.035 32.5833 293.998 33.1172C294.975 33.638 296.101 33.8984 297.377 33.8984C298.653 33.8984 299.773 33.638 300.737 33.1172C301.7 32.5833 302.442 31.8542 302.963 30.9297C303.484 30.0052 303.745 28.9505 303.745 27.7656V9.71875H308.862ZM336.687 17.4922C336.557 16.2943 336.016 15.3568 335.066 14.6797C334.128 14.0026 332.904 13.6641 331.394 13.6641C330.326 13.6641 329.395 13.8203 328.601 14.1328C327.82 14.4453 327.221 14.8815 326.804 15.4414C326.387 16.0013 326.179 16.6393 326.179 17.3555C326.179 18.4232 326.628 19.2565 327.527 19.8555C328.425 20.4414 329.59 20.9036 331.023 21.2422L333.679 21.9453C336.114 22.5052 338.099 23.4362 339.636 24.7383C341.185 26.0273 341.96 27.8047 341.96 30.0703C341.96 31.724 341.537 33.1823 340.691 34.4453C339.844 35.7083 338.614 36.6914 336.999 37.3945C335.398 38.0846 333.484 38.4297 331.257 38.4297C329.07 38.4297 327.162 38.0911 325.534 37.4141C323.92 36.724 322.657 35.7214 321.745 34.4062C320.834 33.0911 320.346 31.5156 320.28 29.6797H325.28C325.398 31.099 325.997 32.1862 327.077 32.9414C328.158 33.6966 329.538 34.0807 331.218 34.0938C332.325 34.0938 333.301 33.9245 334.148 33.5859C335.007 33.2344 335.678 32.7526 336.159 32.1406C336.641 31.5286 336.882 30.8255 336.882 30.0312C336.869 28.9896 336.439 28.1823 335.593 27.6094C334.747 27.0234 333.471 26.5156 331.765 26.0859L328.562 25.2656C323.536 23.9505 321.023 21.4115 321.023 17.6484C321.023 16.0078 321.472 14.5625 322.37 13.3125C323.269 12.0495 324.506 11.0729 326.081 10.3828C327.657 9.67969 329.434 9.32812 331.413 9.32812C333.379 9.32812 335.124 9.67318 336.648 10.3633C338.184 11.0534 339.382 12.0234 340.241 13.2734C341.101 14.5104 341.543 15.9167 341.57 17.4922H336.687Z" fill="#FBFBFA"/>
</svg>
